<svg width="3821" height="630" fill="none" xmlns="http://www.w3.org/2000/svg"><path d="M970 141h79c3.67 0 6.83 1.333 9.5 4s4 5.833 4 9.5v323c0 3.667-1.33 6.833-4 9.5s-5.83 4-9.5 4h-90.5c-3.667 0-6.833-1.333-9.5-4s-4-5.833-4-9.5v-137l-33 54c-5.333 8.333-11.5 12.5-18.5 12.5h-35c-7 0-13.167-4.167-18.5-12.5l-33-54v137c0 3.667-1.333 6.833-4 9.5s-5.833 4-9.5 4H703c-3.667 0-6.833-1.333-9.5-4s-4-5.833-4-9.5v-323c0-3.667 1.333-6.833 4-9.5s5.833-4 9.5-4h79c9.333 0 16.5 4.5 21.5 13.5l72.5 120 72.5-120c5-9 12.167-13.5 21.5-13.5zm272.99 350h-102c-3.67 0-6.84-1.333-9.5-4-2.67-2.667-4-5.833-4-9.5v-323c0-3.667 1.33-6.833 4-9.5 2.66-2.667 5.83-4 9.5-4h102c3.66 0 6.83 1.333 9.5 4 2.66 2.667 4 5.833 4 9.5v323c0 3.667-1.34 6.833-4 9.5-2.67 2.667-5.84 4-9.5 4zm289.35-350h90.5c3.66 0 6.83 1.333 9.5 4 2.66 2.667 4 5.833 4 9.5v323c0 3.667-1.34 6.833-4 9.5-2.67 2.667-5.84 4-9.5 4h-79c-8.67 0-15.5-3.833-20.5-11.5l-84.5-127.5v125.5c0 3.667-1.34 6.833-4 9.5-2.67 2.667-5.84 4-9.5 4h-90.5c-3.67 0-6.84-1.333-9.5-4-2.67-2.667-4-5.833-4-9.5v-323c0-3.667 1.33-6.833 4-9.5 2.66-2.667 5.83-4 9.5-4h79c9.33 0 16.16 3.833 20.5 11.5l84.5 138.5V154.5c0-3.667 1.33-6.833 4-9.5 2.66-2.667 5.83-4 9.5-4zm288.88 252.5h154c3.67 0 6.83 1.333 9.5 4s4 5.833 4 9.5v70.5c0 3.667-1.33 6.833-4 9.5s-5.83 4-9.5 4h-260.5c-3.67 0-6.83-1.333-9.5-4s-4-5.833-4-9.5v-323c0-3.667 1.33-6.833 4-9.5s5.83-4 9.5-4h256.5c3.67 0 6.83 1.333 9.5 4s4 5.833 4 9.5V225c0 3.667-1.33 6.833-4 9.5s-5.83 4-9.5 4h-150V270h139c3.67 0 6.83 1.333 9.5 4s4 5.833 4 9.5v65c0 3.667-1.33 6.833-4 9.5s-5.83 4-9.5 4h-139v31.5z" fill="#FBFBFB"/><path d="M2168.88 274v84c0 27 12.33 40.5 37 40.5 19 0 31.5-9 37.5-27 1.66-5.667 3.66-9.5 6-11.5 2.66-2 6.83-3 12.5-3h102c3 0 5.5 1.167 7.5 3.5 2.33 2 3.5 4.5 3.5 7.5 0 29-8.34 53.333-25 73-30.67 36.667-78.5 55-143.5 55-51 0-91.67-11.167-122-33.5-30.34-22.667-45.5-57.333-45.5-104v-85c0-45.667 15.5-80 46.5-103s71.33-34.5 121-34.5c65 0 112.83 18.333 143.5 55 16.66 19.667 25 44 25 73 0 3-1.17 5.667-3.5 8-2 2-4.5 3-7.5 3h-102c-5.34 0-9.34-1-12-3-2.34-2-4.5-5.833-6.5-11.5-6.34-18-18.84-27-37.5-27-24.67 0-37 13.5-37 40.5zm575.53 200.5c1 2 1.5 4.167 1.5 6.5s-1.17 4.667-3.5 7c-2 2-4.5 3-7.5 3h-102.5c-10.33 0-17.5-4.5-21.5-13.5l-43-95.5h-20.5v95.5c0 3.667-1.33 6.833-4 9.5s-5.83 4-9.5 4h-98c-3.67 0-6.83-1.333-9.5-4s-4-5.833-4-9.5v-323c0-3.667 1.33-6.833 4-9.5s5.83-4 9.5-4h148c48 0 85.5 10.833 112.5 32.5 27 21.333 40.5 52.167 40.5 92.5 0 40-18 71.5-54 94.5l61.5 114zm-197-240.5v53h36.5c7.33 0 13-2.333 17-7 4-5 6-11.167 6-18.5s-2-13.667-6-19c-3.67-5.667-9.33-8.5-17-8.5h-36.5zM2903 141h108.5c12 0 19.5 5.5 22.5 16.5l111.5 319c.34 1 .5 2.667.5 5 0 2-1.16 4.167-3.5 6.5-2 2-4.5 3-7.5 3h-92.5c-10 0-16.5-4.167-19.5-12.5l-12-33h-107.5l-12 33c-3 8.333-9.5 12.5-19.5 12.5h-92.5c-3 0-5.66-1-8-3-2-2.333-3-4.5-3-6.5 0-2.333.17-4 .5-5l111.5-319c3-11 10.5-16.5 22.5-16.5zm26 207h56.5l-28.5-93-28 93zm270.58-207h252c3.67 0 6.84 1.333 9.5 4 2.67 2.667 4 5.833 4 9.5v76c0 3.667-1.33 6.833-4 9.5-2.66 2.667-5.83 4-9.5 4h-143v37h133c3.67 0 6.84 1.333 9.5 4 2.67 2.667 4 5.833 4 9.5V370c0 3.667-1.33 6.833-4 9.5-2.66 2.667-5.83 4-9.5 4h-133v94c0 3.667-1.33 6.833-4 9.5-2.66 2.667-5.83 4-9.5 4h-95.5c-3.66 0-6.83-1.333-9.5-4-2.66-2.667-4-5.833-4-9.5v-323c0-3.667 1.34-6.833 4-9.5 2.67-2.667 5.84-4 9.5-4zm314.05 0h293c3.66 0 6.83 1.333 9.5 4 2.66 2.667 4 5.833 4 9.5V235c0 3.667-1.34 6.833-4 9.5-2.67 2.667-5.84 4-9.5 4h-83v229c0 3.667-1.34 6.833-4 9.5-2.67 2.667-5.84 4-9.5 4h-100.01c-3.66 0-6.83-1.333-9.49-4-2.67-2.667-4-5.833-4-9.5v-229h-83c-3.67 0-6.84-1.333-9.5-4-2.67-2.667-4-5.833-4-9.5v-80.5c0-3.667 1.33-6.833 4-9.5 2.66-2.667 5.83-4 9.5-4zM391 68c0-37.555 30.445-68 68-68h57c38.66 0 70 31.34 70 70v65c0 33.137-26.863 60-60 60H391V68zM0 70C0 31.34 31.34 0 70 0h55c38.66 0 70 31.34 70 70v125H60c-33.137 0-60-26.863-60-60V70zM49 319c0-27.614 22.386-50 50-50h113v311c0 27.614-22.386 50-50 50H99c-27.614 0-50-22.386-50-50V319zM375 269h109c27.614 0 50 22.386 50 50v261c0 27.614-22.386 50-50 50h-59c-27.614 0-50-22.386-50-50V269z" fill="#39B9F1"/><path fill="#39B9F1" d="M195 195h196v279H195z"/></svg>