<svg width="3505" height="630" fill="none" xmlns="http://www.w3.org/2000/svg"><path d="M970 141h79c3.67 0 6.83 1.333 9.5 4s4 5.833 4 9.5v323c0 3.667-1.33 6.833-4 9.5s-5.83 4-9.5 4h-90.5c-3.667 0-6.833-1.333-9.5-4s-4-5.833-4-9.5v-137l-33 54c-5.333 8.333-11.5 12.5-18.5 12.5h-35c-7 0-13.167-4.167-18.5-12.5l-33-54v137c0 3.667-1.333 6.833-4 9.5s-5.833 4-9.5 4H703c-3.667 0-6.833-1.333-9.5-4s-4-5.833-4-9.5v-323c0-3.667 1.333-6.833 4-9.5s5.833-4 9.5-4h79c9.333 0 16.5 4.5 21.5 13.5l72.5 120 72.5-120c5-9 12.167-13.5 21.5-13.5Zm272.99 350h-102c-3.67 0-6.84-1.333-9.5-4-2.67-2.667-4-5.833-4-9.5v-323c0-3.667 1.33-6.833 4-9.5 2.66-2.667 5.83-4 9.5-4h102c3.66 0 6.83 1.333 9.5 4 2.66 2.667 4 5.833 4 9.5v323c0 3.667-1.34 6.833-4 9.5-2.67 2.667-5.84 4-9.5 4Zm289.35-350h90.5c3.66 0 6.83 1.333 9.5 4 2.66 2.667 4 5.833 4 9.5v323c0 3.667-1.34 6.833-4 9.5-2.67 2.667-5.84 4-9.5 4h-79c-8.67 0-15.5-3.833-20.5-11.5l-84.5-127.5v125.5c0 3.667-1.34 6.833-4 9.5-2.67 2.667-5.84 4-9.5 4h-90.5c-3.67 0-6.84-1.333-9.5-4-2.67-2.667-4-5.833-4-9.5v-323c0-3.667 1.33-6.833 4-9.5 2.66-2.667 5.83-4 9.5-4h79c9.33 0 16.16 3.833 20.5 11.5l84.5 138.5V154.5c0-3.667 1.33-6.833 4-9.5 2.66-2.667 5.83-4 9.5-4Zm288.88 252.5h154c3.67 0 6.83 1.333 9.5 4s4 5.833 4 9.5v70.5c0 3.667-1.33 6.833-4 9.5s-5.83 4-9.5 4h-260.5c-3.67 0-6.83-1.333-9.5-4s-4-5.833-4-9.5v-323c0-3.667 1.33-6.833 4-9.5s5.83-4 9.5-4h256.5c3.67 0 6.83 1.333 9.5 4s4 5.833 4 9.5V225c0 3.667-1.33 6.833-4 9.5s-5.83 4-9.5 4h-150V270h139c3.67 0 6.83 1.333 9.5 4s4 5.833 4 9.5v65c0 3.667-1.33 6.833-4 9.5s-5.83 4-9.5 4h-139v31.5Z" fill="#4E4E4E"/><path d="M2044.88 141h293c3.66 0 6.83 1.333 9.5 4 2.66 2.667 4 5.833 4 9.5V235c0 3.667-1.34 6.833-4 9.5-2.67 2.667-5.84 4-9.5 4h-83v229c0 3.667-1.34 6.833-4 9.5-2.67 2.667-5.84 4-9.5 4h-100c-3.67 0-6.84-1.333-9.5-4-2.67-2.667-4-5.833-4-9.5v-229h-83c-3.67 0-6.84-1.333-9.5-4-2.67-2.667-4-5.833-4-9.5v-80.5c0-3.667 1.33-6.833 4-9.5 2.66-2.667 5.83-4 9.5-4Zm676.09 333.5c1 2 1.5 4.167 1.5 6.5s-1.16 4.667-3.5 7c-2 2-4.5 3-7.5 3h-102.5c-10.33 0-17.5-4.5-21.5-13.5l-43-95.5h-20.5v95.5c0 3.667-1.33 6.833-4 9.5-2.66 2.667-5.83 4-9.5 4h-98c-3.66 0-6.83-1.333-9.5-4-2.66-2.667-4-5.833-4-9.5v-323c0-3.667 1.34-6.833 4-9.5 2.67-2.667 5.84-4 9.5-4h148c48 0 85.5 10.833 112.5 32.5 27 21.333 40.5 52.167 40.5 92.5 0 40-18 71.5-54 94.5l61.5 114Zm-197-240.5v53h36.5c7.34 0 13-2.333 17-7 4-5 6-11.167 6-18.5s-2-13.667-6-19c-3.66-5.667-9.33-8.5-17-8.5h-36.5Zm355.6-93h108.5c12 0 19.5 5.5 22.5 16.5l111.5 319c.33 1 .5 2.667.5 5 0 2-1.17 4.167-3.5 6.5-2 2-4.5 3-7.5 3h-92.5c-10 0-16.5-4.167-19.5-12.5l-12-33h-107.5l-12 33c-3 8.333-9.5 12.5-19.5 12.5h-92.5c-3 0-5.67-1-8-3-2-2.333-3-4.5-3-6.5 0-2.333.16-4 .5-5l111.5-319c3-11 10.5-16.5 22.5-16.5Zm26 207h56.5l-28.5-93-28 93Zm597.57 126.5c1 1.667 1.5 3.833 1.5 6.5 0 2.333-1.16 4.667-3.5 7-2 2-4.5 3-7.5 3h-112.5c-9 0-15.83-3.833-20.5-11.5l-43.5-67-41.5 67c-4.66 7.667-11.5 11.5-20.5 11.5h-109c-3 0-5.66-1-8-3-2-2.333-3-4.667-3-7 0-2.667.5-4.833 1.5-6.5l105-162.5-94.5-154.5c-1-2-1.5-4.167-1.5-6.5s1-4.5 3-6.5c2.34-2.333 5-3.5 8-3.5h108.5c9.34 0 16.34 4.167 21 12.5l35 61 38-61c4.67-8.333 11.67-12.5 21-12.5h103.5c3 0 5.5 1.167 7.5 3.5 2.34 2 3.5 4.333 3.5 7 0 2.333-.5 4.333-1.5 6l-96.5 153 106.5 164ZM391 68c0-37.555 30.445-68 68-68h57c38.66 0 70 31.34 70 70v65c0 33.137-26.863 60-60 60H391V68ZM0 70C0 31.34 31.34 0 70 0h55c38.66 0 70 31.34 70 70v125H60c-33.137 0-60-26.863-60-60V70ZM49 319c0-27.614 22.386-50 50-50h113v311c0 27.614-22.386 50-50 50H99c-27.614 0-50-22.386-50-50V319ZM375 269h109c27.614 0 50 22.386 50 50v261c0 27.614-22.386 50-50 50h-59c-27.614 0-50-22.386-50-50V269Z" fill="#39B9F1"/><path fill="#39B9F1" d="M195 195h196v279H195z"/></svg>