<?xml version="1.0" standalone="no"?>
<!DOCTYPE svg PUBLIC "-//W3C//DTD SVG 20010904//EN"
 "http://www.w3.org/TR/2001/REC-SVG-20010904/DTD/svg10.dtd">
<svg version="1.0" xmlns="http://www.w3.org/2000/svg"
 width="630.000000pt" height="630.000000pt" viewBox="0 0 630.000000 630.000000"
 preserveAspectRatio="xMidYMid meet">
<metadata>
Created by potrace 1.14, written by Peter Selinger 2001-2017
</metadata>
<g transform="translate(0.000000,630.000000) scale(0.100000,-0.100000)"
fill="#000000" stroke="none">
<path d="M775 6285 c-217 -47 -410 -206 -499 -411 -51 -117 -54 -153 -55 -584
0 -251 4 -422 10 -450 6 -25 12 -54 15 -65 2 -11 20 -53 40 -94 51 -104 162
-215 264 -265 135 -66 136 -66 918 -66 l702 0 0 -370 0 -370 -510 0 c-280 0
-512 0 -515 0 -3 -1 -28 -8 -57 -16 -187 -53 -329 -202 -367 -382 -8 -38 -11
-453 -11 -1415 1 -1142 3 -1371 15 -1415 48 -181 186 -318 367 -366 68 -18
751 -22 843 -5 189 34 355 198 394 387 7 35 11 246 11 607 l0 555 815 0 815 0
0 -555 c0 -373 4 -571 11 -607 41 -192 204 -352 395 -387 87 -17 738 -13 803
4 181 47 326 195 368 375 19 81 19 2749 0 2830 -44 186 -201 340 -385 379 -34
7 -224 11 -542 11 l-490 0 0 370 0 370 703 1 c386 0 716 3 732 5 66 10 163 45
223 81 58 35 172 137 172 154 0 4 6 14 14 21 24 25 65 114 85 188 19 66 20
104 20 473 0 415 -5 486 -45 574 -8 17 -14 35 -14 40 0 4 -22 42 -49 83 -98
152 -219 245 -391 301 -74 24 -78 24 -470 24 -217 0 -411 -3 -432 -7 -155 -31
-315 -132 -410 -258 -67 -89 -124 -231 -134 -330 -1 -14 -2 -323 -3 -687 l-1
-663 -980 0 -980 0 -1 663 c0 364 -2 669 -4 677 -2 8 -6 33 -10 55 -16 97 -99
255 -176 335 -92 96 -210 164 -343 198 -72 19 -110 21 -440 21 -259 -1 -378
-4 -421 -14z"/>
</g>
</svg>
